<?xml version="1.0" standalone="no"?>
<!DOCTYPE svg PUBLIC "-//W3C//DTD SVG 20010904//EN"
 "http://www.w3.org/TR/2001/REC-SVG-20010904/DTD/svg10.dtd">
<svg version="1.0" xmlns="http://www.w3.org/2000/svg"
 width="820.000000pt" height="820.000000pt" viewBox="0 0 820.000000 820.000000"
 preserveAspectRatio="xMidYMid meet">
<metadata>
Created by potrace 1.11, written by Peter Selinger 2001-2013
</metadata>
<g transform="translate(0.000000,820.000000) scale(0.100000,-0.100000)"
fill="#000000" stroke="none">
<path d="M5997 7874 c-5 -5 -12 -9 -15 -10 -47 -6 -111 -69 -136 -134 -10 -25
-17 -46 -17 -47 1 -2 1 -16 1 -33 l0 -30 -142 1 c-152 0 -291 -6 -373 -16 -27
-4 -60 -8 -72 -10 -13 -1 -33 3 -45 9 -13 7 -45 20 -73 30 -27 10 -59 21 -70
25 -36 15 -136 43 -197 57 -10 2 -28 6 -40 9 -45 11 -124 25 -150 27 -16 1
-28 5 -28 8 0 3 -17 5 -38 6 -20 0 -77 4 -127 8 -49 4 -114 9 -144 11 -70 6
-79 -1 -36 -31 71 -48 110 -99 136 -179 14 -45 14 -44 24 -141 l7 -70 -41 -27
c-22 -15 -44 -27 -47 -27 -4 0 -15 -6 -23 -14 -9 -7 -25 -17 -37 -20 -19 -6
-21 -3 -19 26 2 39 -21 122 -41 154 -47 71 -163 102 -281 74 -125 -29 -185
-72 -225 -159 -21 -45 -31 -128 -17 -146 4 -5 7 -13 7 -18 1 -58 68 -181 137
-249 l27 -27 -23 -30 c-38 -47 -62 -56 -93 -36 -14 10 -26 14 -26 10 0 -4 -6
-3 -13 3 -24 21 -212 32 -279 18 -30 -6 -63 -13 -118 -22 -61 -10 -84 -15
-124 -24 -22 -5 -43 -7 -47 -4 -20 12 -16 -20 8 -68 15 -29 28 -57 29 -63 1
-5 14 -41 29 -80 15 -38 28 -81 30 -95 3 -14 9 -43 14 -65 5 -22 12 -59 15
-81 3 -23 10 -71 17 -107 l12 -65 -59 -103 -60 -103 -44 -3 c-63 -3 -117 -10
-174 -23 -49 -11 -49 -11 -89 27 -88 85 -176 178 -237 253 -25 30 -47 57 -50
60 -27 26 -190 291 -190 308 0 15 -82 128 -124 172 -51 52 -191 152 -200 143
-3 -4 -6 -2 -6 4 0 6 -30 20 -68 31 -77 25 -187 26 -202 3 -12 -21 -2 -38 30
-51 32 -13 156 -143 222 -232 92 -123 145 -262 135 -354 -12 -118 -79 -204
-178 -228 -43 -10 -44 -34 -2 -69 113 -97 188 -193 235 -302 32 -74 36 -86 54
-175 16 -78 6 -220 -15 -220 -5 0 -78 22 -163 50 -84 27 -160 50 -169 50 -9 0
-19 3 -23 8 -4 4 -11 7 -14 8 -4 0 -27 6 -52 13 -25 7 -49 14 -55 16 -5 1 -17
5 -25 8 -23 8 -85 27 -106 32 -42 9 -256 80 -366 121 -147 56 -387 175 -396
197 -2 4 -8 7 -14 7 -6 0 -27 12 -47 28 -20 15 -43 32 -53 37 -9 6 -46 31 -81
57 -111 81 -240 140 -337 152 -105 14 -136 19 -142 23 -5 2 -8 1 -8 -4 0 -4
-19 -7 -43 -7 -81 3 -217 -61 -211 -99 4 -28 10 -31 62 -33 51 -1 107 -12 132
-25 8 -4 65 -32 125 -61 167 -80 265 -160 321 -263 22 -40 28 -64 31 -130 3
-93 -14 -136 -74 -193 -53 -49 -42 -66 57 -88 38 -8 55 -12 58 -14 1 -2 5 -3
10 -4 28 -8 128 -60 173 -90 153 -105 285 -286 294 -405 3 -43 0 -53 -23 -76
-36 -36 -21 -59 39 -62 204 -7 326 -71 386 -201 39 -83 36 -153 -9 -238 -26
-47 -3 -66 62 -50 32 8 147 10 179 2 50 -11 148 -65 184 -100 20 -20 37 -39
37 -42 0 -3 8 -13 18 -24 17 -18 52 -103 60 -145 4 -21 5 -26 16 -67 13 -47
59 -51 181 -17 39 11 81 22 93 25 13 3 40 10 60 17 21 7 59 14 85 16 47 3 48
2 43 -26 -39 -236 -63 -378 -66 -378 -1 0 -5 -21 -14 -75 -4 -25 -22 -124 -31
-170 -12 -60 -23 -134 -31 -206 -2 -27 -6 -56 -9 -64 -15 -51 -25 -369 -14
-460 4 -30 9 -77 12 -105 7 -65 16 -114 28 -145 4 -14 11 -36 13 -50 3 -14 9
-40 15 -58 5 -18 10 -36 11 -40 3 -20 13 -58 19 -67 3 -5 7 -18 8 -28 2 -10
17 -53 33 -95 16 -42 30 -80 30 -84 0 -14 -101 -61 -205 -95 -60 -19 -117 -38
-125 -40 -8 -3 -22 -7 -30 -9 -8 -1 -58 -11 -110 -23 -52 -11 -113 -22 -135
-25 -22 -4 -51 -8 -65 -11 -14 -3 -61 -7 -105 -11 -200 -14 -399 1 -555 41
-14 3 -29 7 -35 9 -129 32 -309 118 -418 199 -124 91 -193 172 -244 285 -43
92 -39 254 8 367 7 17 13 33 13 37 1 3 15 27 33 52 35 50 94 85 133 80 43 -6
100 -27 100 -37 0 -5 -26 -50 -57 -100 -58 -95 -133 -247 -133 -271 0 -19 27
-24 65 -14 17 5 37 11 45 13 8 2 49 12 90 23 41 12 86 23 100 26 14 3 56 12
93 21 74 16 124 26 147 30 8 1 29 4 45 8 17 4 50 9 75 13 64 8 73 18 66 78 -9
83 -20 146 -46 261 -21 94 -64 323 -69 367 -1 4 -10 12 -21 18 -17 9 -29 2
-87 -58 -38 -37 -86 -90 -108 -116 -22 -27 -46 -55 -52 -62 -7 -7 -13 -17 -13
-23 0 -23 -23 -21 -70 8 -27 16 -75 38 -107 47 -58 17 -160 26 -178 15 -5 -3
-25 -7 -44 -8 -18 -1 -68 -18 -109 -38 -90 -42 -199 -146 -252 -240 -19 -33
-37 -61 -42 -63 -4 -2 -8 -11 -8 -21 0 -9 -4 -21 -9 -26 -11 -13 -59 -143 -65
-177 -3 -15 -7 -32 -10 -37 -9 -14 -20 -129 -19 -201 1 -85 8 -133 32 -208 10
-34 16 -62 12 -62 -3 0 -1 -4 5 -8 5 -4 20 -32 33 -62 85 -203 262 -403 508
-578 18 -12 35 -22 39 -22 4 0 15 -7 24 -15 20 -18 247 -135 263 -135 7 0 26
-7 42 -16 74 -40 418 -136 531 -149 11 -2 47 -8 79 -15 32 -7 75 -14 94 -15
20 -2 54 -6 76 -10 22 -3 69 -8 105 -11 36 -3 83 -7 105 -9 22 -2 118 -7 213
-10 94 -3 175 -5 180 -6 25 -2 544 9 674 14 27 1 48 4 48 8 0 3 10 5 23 5 29
1 148 14 167 19 8 2 40 7 70 10 30 4 59 9 63 12 5 3 5 -19 1 -48 -9 -66 -9
-204 0 -243 4 -16 16 -41 26 -56 20 -28 90 -86 90 -74 0 3 6 1 14 -5 47 -39
276 -30 276 10 0 5 6 9 13 9 19 0 131 114 167 169 16 26 37 55 45 66 8 10 15
24 15 30 0 14 34 47 41 41 3 -3 36 -7 74 -11 39 -3 93 -8 120 -10 28 -3 73 -7
100 -10 55 -4 143 -14 190 -20 38 -6 380 -6 420 -1 17 2 64 7 105 11 83 8 103
10 170 20 59 9 71 11 162 30 21 5 28 2 33 -15 12 -36 100 -162 158 -226 80
-86 142 -118 235 -120 123 -3 224 51 262 139 17 39 21 66 19 138 -1 50 -6 111
-11 137 -5 26 -11 61 -13 77 -2 17 -10 55 -19 84 -11 40 -12 59 -4 68 5 7 14
10 19 7 5 -3 9 -1 9 3 0 5 12 16 28 25 15 9 36 25 47 35 11 10 38 31 60 48 69
51 248 238 322 336 68 91 183 282 183 305 0 6 7 17 15 24 8 7 15 20 15 29 0 9
7 29 15 45 21 40 79 211 110 326 27 100 31 118 40 188 3 24 7 47 9 51 3 4 7
29 10 56 4 28 8 68 11 90 9 69 16 205 19 335 l2 125 29 -2 c188 -13 330 -4
457 28 24 5 49 11 56 11 6 1 12 4 12 8 0 3 8 6 19 7 32 3 164 70 204 104 44
38 84 101 91 144 2 17 5 32 6 35 11 26 -6 143 -25 179 -28 56 -113 120 -137
105 -5 -3 -8 -1 -8 4 0 5 -6 9 -12 10 -7 0 -37 7 -66 16 -89 24 -168 31 -374
31 -109 -1 -198 1 -198 3 0 1 7 16 15 32 9 17 15 32 15 35 1 21 92 208 160
330 28 50 54 98 57 107 3 10 9 18 13 18 5 0 14 15 20 34 6 19 18 40 26 46 7 7
14 21 14 30 0 10 3 20 8 22 19 8 173 354 186 417 2 9 6 23 9 31 4 8 15 46 24
84 18 68 19 69 73 98 106 57 232 166 277 241 10 15 21 27 25 27 4 0 8 5 8 11
0 6 8 23 19 37 29 42 79 179 96 265 14 73 15 246 1 302 -3 11 -12 45 -20 76
-53 197 -208 391 -392 490 -93 50 -98 54 -112 95 -33 96 -106 241 -176 348
-108 168 -314 377 -428 435 -15 8 -36 21 -45 30 -10 9 -29 21 -43 28 -14 6
-61 29 -105 50 -68 33 -96 45 -135 57 -3 1 -9 4 -15 7 -5 4 -23 10 -40 14 -36
10 -25 7 -112 34 -39 12 -78 24 -85 25 -7 1 -39 9 -71 16 -55 13 -58 15 -52
39 47 188 -39 289 -255 299 -52 2 -99 0 -103 -4z"/>
</g>
</svg>
