<?xml version="1.0" encoding="utf-8"?>
<!-- Generator: Adobe Illustrator 21.1.0, SVG Export Plug-In . SVG Version: 6.00 Build 0)  -->
<svg version="1.1" id="Layer_1" xmlns="http://www.w3.org/2000/svg" xmlns:xlink="http://www.w3.org/1999/xlink" x="0px" y="0px"
	 viewBox="0 0 204.6 189" style="enable-background:new 0 0 204.6 189;" xml:space="preserve">
<style type="text/css">
	.st0{fill:#AE2525;}
	.st1{fill:#0B0B0B;}
	.st2{fill:#E53A38;}
	.st3{fill:#F08282;}
	.st4{fill:#D7686E;}
	.st5{fill:#FFFFFF;}
	.st6{fill:#D6DDDC;}
	.st7{fill:#D8B59B;}
	.st8{fill:#A78F76;}
	.st9{fill:#474840;}
	.st10{fill:#30302B;}
	.st11{fill:#C2C2C1;}
</style>
<g>
	<path class="st0" d="M86.8,60.4C77.5,51.2,67,44.7,60.7,32.7c-1.4-2.7-3-5.2-5.5-7c-3-2.1-5.2-3.6-9-3c1.3-0.2,5.6,5.2,6.4,6.3
		c1.8,2.3,3.3,5.2,3.5,8.2c0.2,3.3-2,7.1-5.3,7.4c5.2,3.5,8.5,9.7,8.4,16c0,1.8-0.8,4-2.5,4.1c3,1.2,5.9,3.3,7,6.4
		c1.1,3.1,0.1,7-2.9,8.4c3.2,0.4,6.2,2.3,7.7,5.1c1,1.8,1.4,3.9,1.2,6c-0.3,2.7-1.8,3.4,1.2,3.9c4.7,0.8,8.7,0.5,11.7,5.2
		c1.1-1,2.3-2,3.4-3c0.7,0.5,0.6,1.8-0.2,2.2c0,0.5,0.9,0.5,1.4,0.2c6.1-3.3,10.1-9,10.3-16C97.6,73.7,93,66.5,86.8,60.4z"/>
</g>
<g>
	<path class="st1" d="M82.5,100.5c0,0-0.1,0-0.1,0c-0.2,0-0.4-0.2-0.5-0.3c-2.3-3.6-5.1-4-8.8-4.5c-0.8-0.1-1.6-0.2-2.4-0.4
		c-1.1-0.2-1.8-0.4-2.2-1c-0.4-0.6-0.2-1.2,0-1.9c0.1-0.5,0.3-1,0.4-1.8c0.2-1.9-0.2-3.9-1.1-5.5c-1.4-2.6-4.2-4.4-7.1-4.8
		c-0.3,0-0.6-0.3-0.7-0.6c-0.1-0.3,0.1-0.7,0.4-0.8c2.7-1.3,3.5-4.9,2.5-7.5c-0.9-2.5-3.3-4.7-6.6-6c-0.3-0.1-0.5-0.5-0.5-0.8
		c0.1-0.3,0.3-0.6,0.7-0.6c1.3-0.1,1.8-2.1,1.8-3.4c0.1-6-3-12-8-15.4c-0.3-0.2-0.4-0.5-0.3-0.8c0.1-0.3,0.3-0.5,0.7-0.6
		c3-0.3,4.8-3.7,4.7-6.6c-0.2-3-1.9-5.9-3.3-7.8c-1.7-2.3-4.9-5.8-5.8-6c-0.4,0-0.8-0.2-0.8-0.6c-0.1-0.4,0.2-0.8,0.6-0.9l0,0
		c4.2-0.7,6.7,1.1,9.5,3.1c2.6,1.8,4.2,4.2,5.7,7.3c4.4,8.4,10.8,14,17.7,20c2.7,2.4,5.6,4.8,8.3,7.5l0,0c7.6,7.5,11,14.9,10.8,23.3
		c-0.2,7.1-4,13-10.6,16.6c-0.5,0.3-1.3,0.4-1.9,0.1c-0.4-0.2-0.6-0.5-0.6-0.9c0-0.3,0.2-0.6,0.4-0.7c0.1,0,0.1-0.1,0.2-0.2
		l-2.6,2.3C82.9,100.4,82.7,100.5,82.5,100.5z M69.8,93.4c0,0,0.3,0.1,1.2,0.3c0.8,0.1,1.6,0.2,2.4,0.4c3.5,0.5,6.8,0.9,9.3,4.5
		l2.8-2.5c0.3-0.2,0.6-0.3,0.9-0.1c0.6,0.4,0.9,1.1,0.8,1.8c0,0.1,0,0.2-0.1,0.3c5.9-3.4,9.3-8.7,9.5-15.1c0.2-7.9-3.1-15-10.3-22.2
		c-2.7-2.6-5.5-5.1-8.2-7.5c-6.9-6-13.5-11.7-18-20.4c-1.5-2.8-2.9-5.1-5.3-6.8c-2.3-1.7-4-2.8-6.1-3c1.9,1.7,4,4.4,4.6,5.2
		c1.5,2,3.4,5.2,3.6,8.6c0.2,3.1-1.5,6.5-4.4,7.7c4.6,3.7,7.5,9.7,7.4,15.7c0,1.6-0.5,3.2-1.5,4.1c2.9,1.5,5,3.6,5.9,6.1
		c1,2.7,0.5,6.2-1.7,8.3c2.7,0.8,5.1,2.7,6.5,5.2c1.1,1.9,1.5,4.2,1.3,6.4c-0.1,0.9-0.3,1.5-0.4,2C69.9,93,69.8,93.3,69.8,93.4
		C69.8,93.4,69.8,93.4,69.8,93.4z"/>
</g>
<g>
	<path class="st1" d="M61.6,80c-0.3,0-0.6-0.2-0.7-0.6c-0.1-0.4,0.1-0.8,0.5-0.9c5.6-1.5,11.6-1.6,17.2-0.4c0.4,0.1,0.7,0.5,0.6,0.9
		c-0.1,0.4-0.5,0.7-0.9,0.6c-5.4-1.2-11.1-1.1-16.5,0.3C61.7,80,61.6,80,61.6,80z"/>
</g>
<g>
	<path class="st1" d="M69.4,94.1c-0.3,0-0.5-0.1-0.7-0.4c-0.2-0.4,0-0.8,0.3-1c2.8-1.5,5.9-2.5,9.1-3c0.4-0.1,0.8,0.2,0.9,0.6
		c0.1,0.4-0.2,0.8-0.6,0.9c-3,0.5-5.9,1.4-8.6,2.9C69.7,94.1,69.5,94.1,69.4,94.1z"/>
</g>
<g>
	<path class="st2" d="M56.4,63.4c-13.1-4.7-26-6.2-37.3-14.9c-2.6-2-5.2-3.7-8.4-4.3c-3.8-0.7-6.6-1.2-9.9,1.1
		c1.1-0.8,7.7,2.5,9,3.2c2.7,1.5,5.5,3.6,7,6.3c1.7,3.1,1.2,7.7-1.9,9.4c6.6,1,12.5,5.6,15.2,11.7c0.8,1.7,1,4.2-0.6,5.1
		c3.4-0.2,7.1,0.6,9.6,3c2.5,2.4,3.2,6.7,1,9.4c3.2-1.1,6.9-0.5,9.7,1.5c1.8,1.3,3.1,3.1,3.8,5.2c0.9,2.7-0.2,4,2.9,3.2
		c4.9-1.3,8.6-3.4,13.5-0.2c0.6-1.5,1.3-2.9,1.9-4.4c0.9,0.1,1.4,1.5,0.8,2.2c0.3,0.5,1.1,0.1,1.4-0.4c4.4-5.9,5.7-13.1,2.7-19.9
		C72.7,71.3,65.1,66.5,56.4,63.4z"/>
</g>
<g>
	<path class="st3" d="M9.7,48.4c2.7,1.5,5.5,3.6,7,6.3c1.7,3.1,1.2,7.7-1.9,9.4c6.6,1,12.5,5.6,15.2,11.7c0.8,1.7,1,4.2-0.6,5.1
		c3.4-0.2,7.1,0.6,9.6,3c2.5,2.4,3.2,6.7,1,9.4c3.2-1.1,6.9-0.5,9.7,1.5c1.8,1.3,3.1,3.1,3.8,5.2c0.9,2.7-0.2,4,2.9,3.2
		c4.2-1.1,7.6-1.2,12-1.4c1.5-0.1,3.2-0.2,4.3-1.2c1.1-1,1.4-2.7,1.4-4.2c0-1.5-0.3-3,0-4.5c0.6-3.6-0.6-6.6-2.2-9.9
		c-2-4.2-4.4-8.4-8.1-11.3c-3.4-2.7-7.6-4.1-11.7-5.5c-5-1.7-9.5-2.8-14.6-3.9c-4.9-1-9.6-2.8-13.8-5.5C17.4,52,11.7,46.3,4.4,45.5
		C5.5,45.6,8.6,47.8,9.7,48.4z"/>
</g>
<g>
	<path class="st4" d="M61,99.6c2.4-0.1,4.5,0.6,6.7,1.6c1.7,0.7,3.5,0.7,4.9-0.6c1.1-1,1.4-2.7,1.4-4.2c0-1.5-0.3-3,0-4.5
		c0.6-3.6-0.6-6.6-2.2-9.9c-2-4.2-4.4-8.4-8.1-11.3c-3.4-2.7-7.6-4.1-11.7-5.5c-5-1.7-9.5-2.8-14.6-3.9c-3.9-0.8-7.6-2.1-11.1-3.9
		c-2.4-1.2-4.4-3.3-6.6-4.9c-1.3-0.9-2.6-1.7-4.1-2.3c-1.2-0.5-3.1-0.7-4.2-1.4c0.6,0.4,1.3,0.6,2,0.8c3,1,6.3,3.3,7.3,6.4
		c1.2,3.9-1.9,6.9-5.2,8.1c1.1-0.4,2.8,0.1,4-0.1c1.8-0.3,3.5-0.6,5.3-0.8c4.3-0.4,9.1-0.7,13.3,0.6c1.8,0.6,3.8,1.6,4.2,3.7
		c0.6,3.6-3.8,5.2-5.7,7.4c-1.8,2.1-4.3,3.8-6.6,5.3c2.6-1.6,6-2.4,8.9-3.2c1.7-0.5,3.4-0.9,5.2-1.1c1.7-0.3,3.5-0.5,5.2-0.6
		c3.2-0.2,6.8,0.1,9.1,2.3c0.5,0.4,0.9,1,0.8,1.7c-0.1,0.7-0.7,1.2-1.3,1.6c-3,2.1-6.4,3.6-9.6,5.4c-1.6,0.9-3.5,1.8-4.8,3
		c-1,1-1.7,2.3-2.6,3.4c4.7-3.6,11.7-4.4,17.5-4.1c0.9,0.1,1.9,0.2,2.7,0.7s1.4,1.5,1.1,2.4c-0.1,0.4-0.4,0.7-0.7,1.1
		c-1.1,1.2-2.4,2.1-3.6,3.3c-0.9,1-3.6,4.3-2.7,5.7C56.4,100.2,59.1,99.7,61,99.6z"/>
</g>
<g>
	<path class="st1" d="M55,104.2c-0.4,0-0.7-0.1-1-0.3c-0.6-0.4-0.7-1.1-0.8-1.8c-0.1-0.5-0.2-1.1-0.4-1.9c-0.7-1.9-1.9-3.6-3.5-4.8
		c-2.6-1.9-6-2.4-9-1.4c-0.3,0.1-0.7,0-0.9-0.3s-0.2-0.6,0-0.9c2-2.4,1.2-6.3-0.9-8.4c-2-2-5.3-3-9-2.8c-0.4,0-0.7-0.2-0.8-0.5
		c-0.1-0.3,0-0.7,0.4-0.9c1.2-0.7,0.8-2.8,0.3-4.1c-2.6-5.8-8.3-10.2-14.6-11.2c-0.3,0-0.6-0.3-0.6-0.6c-0.1-0.3,0.1-0.6,0.4-0.8
		c2.7-1.6,3-5.7,1.6-8.4c-1.5-2.9-4.5-4.8-6.7-6c-2.7-1.4-7.3-3.4-8.2-3.2c-0.3,0.2-0.8,0.1-1-0.2c-0.2-0.3-0.1-0.8,0.2-1
		c0,0,0,0,0,0c3.7-2.5,6.8-1.9,10.5-1.2c3.3,0.6,5.9,2.2,8.7,4.4c8,6.1,16.6,8.6,25.8,11.3c3.7,1.1,7.5,2.2,11.3,3.5
		c10.6,3.8,17.2,9.4,20.7,17.5c3,6.9,2,14.2-2.8,20.7c-0.4,0.5-1.1,1-1.7,0.9c-0.4,0-0.8-0.3-1-0.6c-0.1-0.3-0.1-0.6,0.1-0.8
		c0.1-0.1,0.1-0.3,0.1-0.5l-1.5,3.5c-0.1,0.2-0.3,0.4-0.5,0.4c-0.2,0.1-0.4,0-0.6-0.1c-3.8-2.5-6.8-1.6-10.5-0.4
		c-0.8,0.2-1.6,0.5-2.5,0.7C55.9,104.1,55.4,104.2,55,104.2z M54.8,102.7c0.1,0,0.3,0,1.3-0.2c0.8-0.2,1.6-0.5,2.4-0.7
		c3.5-1.1,6.9-2.1,11,0.2l1.6-3.6c0.1-0.3,0.5-0.5,0.8-0.4c0.7,0.1,1.3,0.6,1.6,1.4c0.1,0.1,0.1,0.3,0.1,0.4
		c4.3-5.9,5.1-12.6,2.4-18.9c-3.3-7.7-9.6-13-19.8-16.7l0,0c-3.8-1.3-7.5-2.4-11.2-3.5c-9.3-2.7-18.2-5.2-26.3-11.6
		c-2.7-2.1-5.1-3.6-8.1-4.1c-3-0.6-5.1-0.9-7.3-0.1c2.6,0.8,5.9,2.5,6.8,3c2.4,1.3,5.6,3.4,7.3,6.6c1.5,2.9,1.5,7-0.8,9.4
		c6.1,1.5,11.6,6,14.1,11.8c0.7,1.5,0.9,3.3,0.4,4.6c3.4,0.1,6.5,1.3,8.5,3.2c2.1,2.1,3.2,5.8,2,8.8c3-0.5,6.1,0.3,8.6,2
		c1.9,1.4,3.3,3.3,4.1,5.5c0.3,0.9,0.4,1.6,0.5,2.2C54.7,102.2,54.7,102.6,54.8,102.7C54.8,102.7,54.8,102.7,54.8,102.7z"/>
</g>
<g>
	<path class="st1" d="M15.7,64c0,0,0.9-0.6,2.4-1.2c0.7-0.3,1.6-0.7,2.6-1c1-0.3,2-0.6,3-0.9c0.5-0.1,1-0.2,1.6-0.3
		c0.5-0.1,1-0.2,1.5-0.3c1-0.1,1.9-0.2,2.7-0.3c1.6-0.1,2.7,0,2.7,0s-1,0.4-2.6,0.8c-0.8,0.2-1.7,0.5-2.6,0.7c-1,0.3-2,0.5-3,0.7
		c-1,0.2-2.1,0.5-3,0.7c-1,0.2-1.9,0.4-2.7,0.5C16.8,63.9,15.7,64,15.7,64z"/>
</g>
<g>
	<path class="st1" d="M29.9,80.4c0,0,0.1-0.1,0.3-0.3c0.2-0.2,0.5-0.4,0.9-0.7c0.8-0.6,1.9-1.5,3.4-2.4c1.5-0.9,3.2-1.9,5.2-2.7
		c2-0.9,4.2-1.6,6.4-2.2c2.2-0.5,4.5-1,6.7-1.1c1.1-0.1,2.1-0.1,3.1-0.1c1,0,1.9-0.1,2.8-0.1c1.7,0,3.2,0.2,4.2,0.4
		c0.5,0.1,0.9,0.2,1.1,0.3c0.3,0.1,0.4,0.1,0.4,0.1s-0.6-0.1-1.5-0.2c-1-0.1-2.4,0-4.1,0.2c-0.8,0.1-1.7,0.2-2.7,0.3
		c-1,0.1-2,0.2-3,0.3c-1,0.1-2.1,0.3-3.2,0.5c-1.1,0.2-2.2,0.5-3.3,0.7c-2.2,0.5-4.3,1.2-6.3,1.9c-2,0.7-3.8,1.5-5.3,2.2
		c-1.5,0.7-2.8,1.4-3.6,1.9C30.4,80.2,29.9,80.4,29.9,80.4z"/>
</g>
<g>
	<path class="st1" d="M40.6,92.7c0,0,0.3-0.3,0.9-0.9c0.3-0.3,0.6-0.6,1.1-1c0.4-0.4,0.9-0.8,1.5-1.2c0.6-0.4,1.2-0.8,1.9-1.3
		c0.7-0.4,1.4-0.8,2.2-1.2c0.8-0.4,1.6-0.8,2.5-1.1c0.9-0.4,1.7-0.6,2.6-0.9c0.9-0.2,1.8-0.5,2.7-0.7c0.9-0.2,1.8-0.3,2.7-0.5
		c0.9-0.1,1.7-0.2,2.5-0.2c0.8-0.1,1.6-0.1,2.2-0.1c0.7,0,1.3,0,1.9,0.1c0.6,0,1.1,0.1,1.5,0.1C67.6,84,68,84,68,84
		s-0.5,0.1-1.3,0.2c-0.8,0.1-1.9,0.2-3.3,0.4c-0.7,0.1-1.4,0.2-2.2,0.3c-0.8,0.1-1.6,0.3-2.4,0.4c-0.8,0.2-1.7,0.4-2.6,0.6
		c-0.9,0.2-1.7,0.5-2.6,0.7c-0.9,0.3-1.7,0.5-2.6,0.8c-0.8,0.3-1.6,0.6-2.4,0.9c-0.8,0.4-1.5,0.7-2.2,1c-0.7,0.3-1.4,0.7-2,1
		c-0.6,0.3-1.1,0.6-1.6,0.9c-0.5,0.3-0.9,0.5-1.2,0.7C41,92.5,40.6,92.7,40.6,92.7z"/>
</g>
<g>
	<path class="st1" d="M54.5,102.8c0,0,0.4-0.9,1.2-2.1c0.4-0.6,0.9-1.3,1.5-1.9c0.3-0.3,0.6-0.7,1-1c0.4-0.3,0.7-0.6,1.1-0.9
		c0.4-0.3,0.8-0.6,1.2-0.8c0.4-0.3,0.9-0.5,1.3-0.7c0.9-0.4,1.7-0.6,2.4-0.7c0.4-0.1,0.7-0.1,1-0.1c0.3,0,0.6,0,0.8,0
		c0.4,0,0.7,0.1,0.7,0.1s-0.2,0.1-0.6,0.2c-0.4,0.1-0.9,0.3-1.6,0.6c-0.3,0.1-0.6,0.3-1,0.5c-0.4,0.2-0.7,0.4-1.1,0.6
		c-0.4,0.2-0.7,0.5-1.1,0.7c-0.4,0.2-0.7,0.5-1.1,0.8c-0.7,0.5-1.4,1.1-2.1,1.7c-0.7,0.6-1.3,1.1-1.8,1.6c-0.5,0.5-1,0.9-1.3,1.1
		C54.7,102.7,54.5,102.8,54.5,102.8z"/>
</g>
<g>
	<path class="st1" d="M68.8,78.2c-0.3,0-0.6-0.2-0.7-0.4c-3-6.9-10.5-10.4-16.2-12.1c-2.8-0.8-5.7-1.5-8.5-2.1
		c-4.1-0.9-8.4-1.8-12.4-3.4c-4.7-1.9-9-4.6-12.9-7.4l-0.4-0.3c-2.5-1.7-5-3.5-7.8-4.7c-2.7-1.2-5.3-1.3-8.2-1.5l-0.9,0
		c-0.4,0-0.7-0.4-0.7-0.8c0-0.4,0.4-0.7,0.8-0.7l0.9,0c3,0.2,5.8,0.3,8.8,1.6c2.9,1.3,5.5,3.1,8.1,4.8l0.4,0.3
		c3.9,2.7,8.1,5.4,12.6,7.2c3.9,1.6,8.1,2.5,12.1,3.3c2.8,0.6,5.8,1.3,8.6,2.1c6,1.8,13.9,5.5,17.2,12.9c0.2,0.4,0,0.8-0.4,1
		C69,78.2,68.9,78.2,68.8,78.2z"/>
</g>
<g>
	<path class="st2" d="M66.6,153.1c-1.6,1.5-3.6,2.3-5.6,3c-12.5,4.1-27.8,5.3-39.3-2.2c-3.3-2.1-6.3-5-7.9-8.6
		c-2.4-5.5,1.4-18.8,9.3-12.8c-2.1,2.9-3.9,6-5.3,9.3c5.5-1.6,11.1-2.9,16.8-3.7c-0.2-3.7-2.9-14.4-3.1-16.6
		c-1.3,1.2-6.3,6.2-6.3,7.8c-4.8-4.6-11.9-3.7-16.1,1c-4.4,4.8-7,12.8-5.5,19.2c2,8.6,8.6,15.5,16,19.9c15.1,9,36.3,9.7,53.3,8.7
		c7.2-0.4,14.4-1.4,21.5-3"/>
</g>
<g>
	<g>
		<g>
			<path class="st0" d="M22.5,131.8c0,0.4,0.2,0.7,0.5,0.9c-2,2.8-3.8,5.8-5.1,9c0,0.1,0.1,0.1,0.1,0.2c5.4-1.6,11-2.8,16.6-3.6
				c0-0.8-0.2-1.9-0.4-3.3c-4.2,0.8-8.3,1.7-12.3,3c0.6-1.3,1.2-2.6,1.9-3.9c0.5-0.9,1.5-2,1-3c-0.1-0.1-0.2-0.3-0.3-0.3
				c-0.1,0-0.3,0-0.4,0c-0.6,0.1-1.2,0.4-1.3,1C22.6,131.7,22.6,131.7,22.5,131.8z"/>
		</g>
	</g>
	<g>
		<g>
			<path class="st0" d="M76.9,174.2c-17.1,1-38.2,0.3-53.3-8.7c-7.4-4.4-14-11.3-16-19.9c-1.3-5.7,0.6-12.5,4-17.3
				c-0.9,0.6-1.7,1.3-2.5,2.1c-4.4,4.8-7,12.8-5.5,19.2c2,8.6,8.6,15.5,16,19.9c15.1,9,36.3,9.7,53.3,8.7c7.2-0.4,14.4-1.4,21.5-3
				l-3.3-2.6C86.3,173.3,81.6,173.9,76.9,174.2z"/>
		</g>
	</g>
	<g>
		<g>
			<path class="st0" d="M29.2,125.4c0-0.7,1-2.2,2.3-3.7c0,0,0-0.1,0-0.1c-0.6,0.5-1.8,1.8-3.1,3.1
				C28.7,124.9,28.9,125.2,29.2,125.4z"/>
		</g>
	</g>
</g>
<g>
	<path class="st1" d="M61.7,179.3c-18.3,0-32.3-3-42.6-9.1c-8.6-5.1-14.5-12.5-16.3-20.4c-1.5-6.4,0.9-14.6,5.7-19.9
		c2.3-2.6,5.6-4.1,8.8-4.2c2.7-0.1,5.3,0.8,7.5,2.5c1.4-2.7,6.1-7,6.1-7.1c0.2-0.2,0.5-0.2,0.8-0.1c0.3,0.1,0.4,0.3,0.5,0.6
		c0.1,0.9,0.6,3.3,1.1,5.9c0.8,4,1.8,8.5,1.9,10.7c0,0.4-0.3,0.7-0.6,0.8c-5.6,0.8-11.2,2.1-16.7,3.7c-0.3,0.1-0.6,0-0.8-0.2
		c-0.2-0.2-0.2-0.5-0.1-0.8c1.3-3.1,3-6.1,4.9-8.8c-1.9-1.2-3.5-1.3-4.9-0.2c-3,2.4-4.1,9.1-2.6,12.5c1.3,3.1,3.9,5.9,7.6,8.3
		c5.6,3.6,18.1,8.8,38.6,2.1c1.8-0.6,3.8-1.4,5.4-2.8c0.3-0.3,0.8-0.3,1.1,0c0.3,0.3,0.3,0.8,0,1.1c-1.7,1.7-4,2.5-5.9,3.2
		c-9.1,3-26.3,6.6-39.9-2.2c-4-2.6-6.7-5.6-8.2-8.9c-1.7-3.9-0.6-11.4,3.1-14.3c1.2-0.9,3.8-2.1,7.4,0.6c0.3,0.2,0.4,0.7,0.1,1
		c-1.8,2.4-3.3,5-4.5,7.6c4.8-1.4,9.7-2.4,14.6-3.2c-0.3-2.3-1.1-6.4-1.8-9.8c-0.4-1.8-0.7-3.4-0.9-4.6c-2.3,2.2-5,5.4-5,6.3
		c0,0.3-0.2,0.6-0.4,0.7c-0.3,0.1-0.6,0.1-0.8-0.1c-2-1.9-4.6-2.9-7.3-2.8c-2.9,0.1-5.7,1.5-7.8,3.7c-4.4,4.9-6.7,12.7-5.4,18.5
		c1.7,7.4,7.4,14.5,15.6,19.4c12.1,7.2,29.4,10,52.9,8.6c7.2-0.4,14.4-1.4,21.4-2.9c0.4-0.1,0.8,0.2,0.9,0.6
		c0.1,0.4-0.2,0.8-0.6,0.9c-7.1,1.5-14.3,2.6-21.6,3C69,179.1,65.3,179.3,61.7,179.3z"/>
</g>
<g>
	<path class="st2" d="M167.8,119.9c7.9,2.6,17.6,3.2,25.3-0.6c2.5-1.2,4.2-2.8,4.6-5.6c0.3-2.3-0.2-5-2.5-6
		c-6.6-2.8-14.5-1.9-21.5-1.9"/>
</g>
<g>
	<path class="st0" d="M192.4,114.9c2.5-1.2,4.2-2.8,4.6-5.5c0.7,1.2,0.9,2.8,0.7,4.3c-0.4,2.8-2.1,4.4-4.6,5.6
		c-7.7,3.8-17.4,3.1-25.3,0.6l1.6-3.8C176.8,118.1,185.4,118.3,192.4,114.9z"/>
</g>
<g>
	<path class="st1" d="M167.8,119.9c0,0,0.2,0.1,0.7,0.2c0.4,0.1,1.1,0.3,1.9,0.4c0.8,0.2,1.8,0.4,3,0.5c1.2,0.2,2.5,0.3,3.9,0.4
		c1.4,0.1,3,0.1,4.7,0c1.6-0.1,3.4-0.3,5.1-0.7c1.7-0.4,3.5-1,5.2-1.8c1.7-0.7,3.3-1.8,4.1-3.3c0.4-0.8,0.6-1.6,0.7-2.5
		c0.1-0.9,0-1.8-0.3-2.6c-0.3-0.8-0.7-1.5-1.4-1.9c-0.1-0.1-0.4-0.2-0.5-0.3l-0.6-0.3c-0.4-0.2-0.9-0.3-1.3-0.5
		c-1.7-0.5-3.4-0.9-5-1.1c-1.6-0.2-3.2-0.3-4.6-0.4c-2.9-0.1-5.3-0.1-7-0.2c-1.7,0-2.7-0.1-2.7-0.1s1-0.1,2.7-0.2
		c1.7-0.1,4.1-0.3,7.1-0.4c1.5,0,3.1,0,4.8,0.2c1.7,0.2,3.5,0.4,5.3,1c0.5,0.1,0.9,0.3,1.3,0.5l0.7,0.2c0.3,0.1,0.5,0.2,0.7,0.4
		c1,0.6,1.6,1.6,2,2.6c0.3,1,0.4,2.1,0.4,3.2c-0.1,1-0.3,2.1-0.8,3.1c-1.1,2-3,3.1-4.8,3.9c-1.8,0.8-3.7,1.4-5.5,1.7
		c-3.7,0.7-7.2,0.7-10.1,0.3c-1.5-0.2-2.8-0.4-4-0.7c-1.2-0.3-2.2-0.5-3-0.8c-0.8-0.2-1.4-0.5-1.9-0.6
		C168,119.9,167.8,119.9,167.8,119.9z"/>
</g>
<g>
	<path class="st2" d="M93.5,16c0.4,3.2,2.7,6.2,5.1,8.3c2.3,2,6.5-0.2,8.2-2.1c1.4-1.6,0.3-3.5,0.1-5.3c-0.2-2.3,0.1-4.9-1.7-6.7
		c-2-1.8-5.8-1.2-8.1-0.3C94.5,11,93.2,13.2,93.5,16z"/>
</g>
<g>
	<path class="st0" d="M104.1,12.2c0.1-0.1,0.1-0.3,0-0.4c-0.1-0.1-0.2-0.2-0.3-0.2c-0.5-0.1-1-0.2-1.5-0.2c-1.7,0-3.4,0.4-4.7,1.4
		c-0.4,0.3-0.7,0.6-0.7,1.1c0,0.1,0,0.2,0.1,0.3c0.1,0.1,0.2,0.1,0.3,0.2c1.4,0.5,2.4,1.4,3.3,2.5c0.4,0.5,0.8,1.1,1,1.8
		c0.1,0.3,0.2,0.6,0.2,1c0,0.1,0,0.9,0,1c0.3,0.2,0.6,0.4,0.9,0.5c0.3-1.3-0.4-4-0.3-4.9c0.1-1,0.3-1.9,0.8-2.7
		c0.2-0.3,0.3-0.7,0.5-1C103.9,12.5,104,12.4,104.1,12.2z"/>
</g>
<g>
	<path class="st1" d="M100.9,25.5c-0.9,0-1.8-0.3-2.6-0.9c-1.8-1.5-4.8-4.7-5.3-8.6l0,0c-0.4-2.9,1.1-5.4,3.8-6.6
		c2.1-0.9,6.3-1.8,8.6,0.4c1.7,1.5,1.8,3.6,1.8,5.7c0,0.4,0,0.9,0.1,1.3c0,0.5,0.2,1,0.3,1.5c0.3,1.3,0.7,2.8-0.5,4.2
		C105.9,23.9,103.2,25.5,100.9,25.5z M94,15.9c0.5,3.6,3.3,6.5,4.9,8c2.1,1.8,6-0.4,7.5-2.1c0.9-1,0.6-2,0.3-3.3
		c-0.1-0.5-0.3-1.1-0.3-1.6c0-0.4-0.1-0.9-0.1-1.4c-0.1-1.9-0.1-3.7-1.5-5c-1.7-1.6-5.1-1.2-7.6-0.2C94.9,11.4,93.7,13.4,94,15.9
		L94,15.9z"/>
</g>
<g>
	<path class="st1" d="M96.7,14.2c0,0,0.2,0,0.5,0c0.3,0,0.7,0.1,1.2,0.3c0.5,0.2,1.1,0.5,1.6,0.9c0.5,0.4,1,1,1.4,1.6
		c0.4,0.6,0.7,1.3,0.9,1.9c0.2,0.6,0.3,1.3,0.3,1.8c0,0.5-0.1,1-0.2,1.3c-0.1,0.3-0.1,0.5-0.1,0.5s0-0.2-0.1-0.5
		c0-0.3-0.1-0.7-0.2-1.2c-0.2-1-0.7-2.2-1.4-3.2c-0.4-0.6-0.8-1-1.2-1.5c-0.4-0.4-0.9-0.8-1.3-1.1C97.3,14.5,96.7,14.2,96.7,14.2z"
		/>
</g>
<g>
	<path class="st1" d="M104.3,12c0,0-0.4,0.5-0.8,1.4c-0.2,0.4-0.4,0.9-0.5,1.5c-0.1,0.3-0.1,0.6-0.2,0.9c0,0.3-0.1,0.6-0.1,0.9
		c-0.1,1.2,0,2.5,0.3,3.4c0.1,0.5,0.2,0.8,0.3,1.1c0.1,0.3,0.1,0.4,0.1,0.4s-0.1-0.1-0.3-0.3c-0.2-0.2-0.4-0.6-0.7-1
		c-0.2-0.4-0.5-1-0.6-1.6c-0.1-0.6-0.2-1.3-0.1-2c0-0.4,0.1-0.7,0.1-1c0.1-0.3,0.2-0.7,0.3-1c0.2-0.6,0.6-1.1,0.9-1.5
		c0.3-0.4,0.7-0.7,0.9-0.8C104.2,12.1,104.3,12,104.3,12z"/>
</g>
<g>
	<path class="st2" d="M134.8,161.4c-0.1,8.3,2.1,17.7,8,24c1.9,2,3.9,3.2,6.7,2.7c2.3-0.4,4.7-1.7,4.9-4.2
		c0.8-7.1-2.5-14.5-4.5-21.1"/>
</g>
<g>
	<path class="st0" d="M146.8,183.5c1.9,2,3.9,3.2,6.6,2.7c-1,1.1-2.5,1.7-3.9,1.9c-2.8,0.5-4.8-0.7-6.7-2.7
		c-3.1-3.3-5.1-7.4-6.4-11.7c-0.5-1.7-3.4-11.3,0.4-11c2.1,0.1,2.3,2.6,2.6,4.1c0.3,2,0.8,4,1.4,6C142,176.7,144,180.5,146.8,183.5z
		"/>
</g>
<g>
	<path class="st1" d="M134.8,161.4c0,0,0,0.2,0,0.7c0,0.5-0.1,1.1-0.1,2c0,0.9,0,1.9,0.1,3.1c0.1,1.2,0.2,2.5,0.5,4
		c0.5,2.9,1.5,6.3,3.3,9.6c0.9,1.6,2,3.3,3.3,4.7c1.3,1.5,2.9,3,5.1,3.4c1.1,0.2,2.2,0.1,3.2-0.1c1-0.2,2-0.6,2.9-1.3
		c0.9-0.6,1.6-1.6,1.9-2.7c0.1-0.3,0.1-0.5,0.2-0.8l0-0.7c0-0.5,0-0.9,0-1.4c0-1.9-0.3-3.7-0.6-5.3c-0.3-1.7-0.8-3.2-1.3-4.6
		c-0.9-2.8-1.9-5-2.5-6.6c-0.6-1.6-1-2.5-1-2.5s0.2,1,0.7,2.6c0.5,1.6,1.2,4,1.9,6.8c0.4,1.4,0.7,2.9,1,4.6c0.3,1.6,0.4,3.4,0.4,5.1
		c0,0.4,0,0.9-0.1,1.3l-0.1,0.7c0,0.1-0.1,0.4-0.1,0.5c-0.2,0.7-0.7,1.4-1.4,1.9c-0.7,0.5-1.5,0.8-2.4,1c-0.9,0.2-1.8,0.3-2.6,0.1
		c-1.7-0.3-3.1-1.5-4.3-2.9c-1.2-1.4-2.3-2.9-3.2-4.4c-0.9-1.6-1.6-3.1-2.2-4.7c-0.6-1.5-1-3-1.4-4.4c-0.3-1.4-0.6-2.7-0.8-3.9
		c-0.2-1.2-0.3-2.2-0.4-3c-0.1-0.8-0.1-1.5-0.1-2C134.8,161.7,134.8,161.4,134.8,161.4z"/>
</g>
<g>
	<path class="st2" d="M146.2,4.9c-0.5,3,0.7,6.1,2.2,8.6c1.5,2.4,5.7,1.6,7.7,0.4c1.7-1,1.2-3,1.5-4.6c0.5-2.1,1.5-4.3,0.3-6.3
		c-1.3-2.2-4.7-2.7-7-2.4C148.4,0.8,146.6,2.4,146.2,4.9z"/>
</g>
<g>
	<path class="st0" d="M156.4,4.5c0.1-0.1,0.2-0.2,0.1-0.3c0-0.1-0.1-0.2-0.2-0.2c-0.4-0.3-0.8-0.4-1.3-0.6c-1.5-0.4-3.1-0.6-4.5,0
		c-0.4,0.1-0.8,0.4-0.9,0.7c0,0.1-0.1,0.2,0,0.3c0,0.1,0.1,0.2,0.2,0.2c1.1,0.8,1.7,1.9,2.2,3.1c0.2,0.6,0.4,1.2,0.4,1.9
		c0,0.3,0,0.6-0.1,0.9c0,0.1-0.3,0.8-0.2,0.9c0.2,0.3,0.4,0.5,0.7,0.7c0.6-1.1,0.8-3.6,1.1-4.4c0.3-0.8,0.8-1.5,1.4-2.2
		c0.2-0.2,0.5-0.5,0.7-0.7C156.2,4.7,156.3,4.6,156.4,4.5z"/>
</g>
<g>
	<path class="st1" d="M151.7,15.5c-1.5,0-3-0.5-3.8-1.8c-1.1-1.8-2.9-5.4-2.3-9l0,0c0.5-2.7,2.4-4.5,5.2-4.7c2.1-0.2,6,0.1,7.5,2.7
		c1.1,1.8,0.5,3.8,0.1,5.5c-0.1,0.4-0.2,0.8-0.3,1.2c-0.1,0.4-0.1,0.9-0.2,1.4c-0.1,1.3-0.2,2.7-1.6,3.5
		C155.2,15,153.4,15.5,151.7,15.5z M146.6,5c-0.6,3.2,1.1,6.6,2.1,8.3c1.3,2.1,5.3,1.3,7.1,0.2c1-0.6,1.1-1.6,1.1-2.8
		c0-0.5,0.1-1,0.2-1.5c0.1-0.4,0.2-0.8,0.3-1.2c0.5-1.7,0.9-3.3,0-4.7c-1.1-1.8-4.1-2.4-6.5-2.2C148.6,1.3,147,2.7,146.6,5L146.6,5z
		"/>
</g>
<g>
	<path class="st1" d="M149.4,4.2c0,0,0.2,0,0.4,0.2c0.3,0.1,0.6,0.3,1,0.6c0.4,0.3,0.8,0.7,1.2,1.2c0.4,0.5,0.7,1.1,0.8,1.8
		c0.2,0.6,0.3,1.3,0.3,1.9c0,0.6-0.1,1.2-0.3,1.7c-0.2,0.5-0.4,0.8-0.5,1.1c-0.2,0.2-0.3,0.4-0.3,0.4s0-0.2,0.1-0.4
		c0-0.3,0.1-0.7,0.1-1.1c0.1-0.9,0-2.1-0.4-3.2c-0.2-0.6-0.4-1.1-0.6-1.6c-0.3-0.5-0.5-0.9-0.8-1.3C149.9,4.6,149.4,4.2,149.4,4.2z"
		/>
</g>
<g>
	<path class="st1" d="M156.7,4.4c0,0-0.5,0.4-1.1,1c-0.3,0.3-0.6,0.7-0.9,1.2c-0.1,0.2-0.3,0.5-0.4,0.7c-0.1,0.2-0.2,0.5-0.3,0.8
		c-0.4,1-0.6,2.1-0.7,3c0,0.4,0,0.8,0,1.1c0,0.3,0,0.4,0,0.4s-0.1-0.1-0.2-0.4c-0.1-0.2-0.2-0.6-0.3-1.1c-0.1-0.5-0.1-1-0.1-1.6
		c0-0.6,0.2-1.2,0.4-1.8c0.1-0.3,0.2-0.6,0.4-0.9c0.1-0.3,0.3-0.5,0.5-0.8c0.4-0.5,0.8-0.8,1.2-1.1c0.4-0.3,0.8-0.4,1-0.5
		C156.5,4.4,156.7,4.4,156.7,4.4z"/>
</g>
<g>
	<path class="st2" d="M129.8,7.7c-6.8-2.8-14.1-4.3-21.4-4.5c1.5,1.1,2.5,2.9,3,4.7s0.6,3.7,0.6,5.6c4.8-2.5,10.2-4,15.6-4.5
		c0.8-0.1,1.9-0.3,2-1.1"/>
</g>
<g>
	<path class="st0" d="M111.1,4.2c-0.6-0.3-1.9-0.3-2.3-0.8c1,1.3,2.1,2.9,2.6,4.5c0.5,1.8,0.6,3.7,0.6,5.6c-0.1-1.4,6.2-2.8,7.2-3.1
		C118.2,9.4,112,4.6,111.1,4.2z"/>
</g>
<g>
	<path class="st1" d="M111.3,14.7l0-1.2c-0.1-1.8-0.1-3.7-0.6-5.5c-0.4-1.3-1.1-3.1-2.7-4.3l-2-1.4l2.4,0.1
		c7.5,0.2,14.8,1.7,21.7,4.6c0.4,0.2,0.6,0.6,0.4,1c0,0.1-0.1,0.2-0.2,0.3c-0.3,0.9-1.1,1.4-2.7,1.6c-5.3,0.4-10.6,2-15.3,4.4
		L111.3,14.7z M110.3,4c1,1.2,1.5,2.6,1.8,3.7c0.4,1.5,0.5,3.1,0.6,4.6c4.6-2.2,9.7-3.6,14.8-4c0.6,0,0.9-0.1,1.1-0.3
		C122.8,5.7,116.6,4.4,110.3,4z"/>
</g>
<g>
	<path class="st2" d="M89.6,25.1c-2.1-0.1-4.2,0-6.2,0.4c-0.8,0.2-2.7,0.4-3.1,1.2c-0.7,1.4,1.4,3.8,1.8,5.1
		c1.1,3.4,1.2,6.6,1.6,10.1c1.5-2.6,3.8-4.4,5.5-6.9c1.7-2.5,3.2-5.3,5.3-7.4c0.3-0.3,0.6-0.6,0.8-0.9
		C93.8,25.4,91.7,25.2,89.6,25.1z"/>
</g>
<g>
	<path class="st0" d="M88.2,35c-0.5-3.6-4-7.1-7.9-8c-0.4,1.4,1.5,3.6,1.9,4.8c1.1,3.4,1.2,6.6,1.6,10.1c1.3-2.2,3.1-3.8,4.6-5.7
		C88.3,35.8,88.2,35.4,88.2,35z"/>
</g>
<g>
	<path class="st1" d="M84.4,42.4l-1.3-0.8c0,0,0,0,0,0c0.1-0.3-0.2-1.7-0.3-2.3c-0.1-0.4-0.1-0.7-0.2-0.9c-0.1-1.2-0.3-2.5-0.6-3.8
		c-0.4-2.1-1.1-4.1-2.3-6.8c-0.1-0.3-0.3-0.5-0.4-0.8l-0.6-1l1.2-0.2c1.1-0.2,2.2-0.4,3.3-0.6c2-0.4,4.1-0.9,6.5-0.8
		c2.1,0.1,4.4,0.3,6.2,1.8l0.5,0.4L96,27.2c-0.3,0.4-0.6,0.7-0.9,1c-1.7,1.6-2.9,3.6-4.1,5.6c-0.4,0.6-0.7,1.2-1.1,1.8
		c-0.8,1.2-1.7,2.3-2.7,3.3C86.1,40,85.2,41,84.4,42.4C84.4,42.3,84.4,42.4,84.4,42.4z M81.2,27.1C81.2,27.1,81.2,27.1,81.2,27.1
		c1.2,2.8,1.9,4.9,2.4,7.1c0.3,1.4,0.4,2.7,0.6,4c0,0.2,0.1,0.5,0.1,0.8c0.1,0.3,0.1,0.5,0.1,0.8c0.5-0.7,1.1-1.3,1.6-1.9
		c0.9-1,1.8-2,2.5-3.1c0.4-0.6,0.7-1.2,1.1-1.7c1.3-2,2.6-4.1,4.3-5.8c0.1-0.1,0.2-0.2,0.3-0.3c-1.3-0.8-3-0.9-4.7-1l0,0
		c-2.1-0.1-4.1,0.3-6.1,0.8C82.8,26.8,82,27,81.2,27.1z"/>
</g>
<g>
	<path class="st2" d="M74.9,59.7c-0.4,0.8-0.7,1.7-1.2,2.5c0-2.4-0.5-4.6-1.9-6.4c-0.6-0.8-4.1-4.3-5.3-2.9c1.8-2.1,4.1-3.1,6.5-4.3
		c2.3-1.1,5.2-1.3,7.6-1.2c-0.1,1.8-1.2,3.3-2.1,4.7C77,54.5,76.1,57.2,74.9,59.7z"/>
</g>
<g>
	<path class="st0" d="M76.9,52.6c-2.6-1.2-5.8-0.8-8.5,0.4c1.4,0.7,3.1,2.4,3.5,2.9c1.4,1.9,2,4,1.9,6.4c0.4-0.8,0.8-1.7,1.2-2.5
		c1-2.3,1.9-4.6,3.1-6.7C77.7,52.9,77.3,52.7,76.9,52.6z"/>
</g>
<g>
	<path class="st1" d="M73.8,63c-0.1,0-0.1,0-0.2,0c-0.3-0.1-0.6-0.4-0.6-0.7c0-2.4-0.6-4.4-1.8-6c-0.5-0.7-1.2-1.3-2.1-2
		c-0.5-0.4-1.6-0.6-3-0.7c-0.3,0-0.6-0.2-0.7-0.5c-0.1-0.3,0-0.6,0.2-0.8c1.2-1.3,6.1-3.9,7.1-4.4c2-1,4.6-1.4,8-1.3
		c0.2,0,0.4,0.1,0.5,0.2c0.1,0.1,0.2,0.3,0.2,0.5c-0.1,1.7-1,3.1-1.8,4.4c-0.1,0.2-0.3,0.4-0.4,0.6c-1.2,1.9-2,3.9-2.9,6
		c-0.2,0.5-0.4,1-0.7,1.5l0,0c-0.4,1-0.8,1.8-1.2,2.6C74.3,62.8,74.1,63,73.8,63z M74.9,59.7L74.9,59.7L74.9,59.7z M68.1,52.4
		c0.7,0.2,1.5,0.4,2,0.8c0.7,0.5,1.6,1.3,2.3,2.2c0.9,1.2,1.5,2.5,1.8,4c0.2-0.5,0.4-1,0.6-1.5c0.9-2.1,1.8-4.2,3-6.2
		c0.1-0.2,0.3-0.4,0.4-0.7c0.6-0.9,1.2-1.9,1.5-2.9c-2.7,0-4.8,0.4-6.4,1.1C72.5,49.7,69.8,51.2,68.1,52.4z"/>
</g>
<g>
	<path class="st2" d="M67.8,157.2c-2.6-4.5-4.1-9.7-5.3-14.8c-3-12.7,1.3-26.1,3.1-38.6c0.6-4.3,0.9-8.7,1.4-13
		c0.8-6.6,2.1-13.1,4-19.4c3.4-11.2,8.3-23.2,15.1-32.8c2.7-3.9,5.9-7.7,9.1-11.2c3.1-3.4,6.5-6.7,10.2-9.5
		c6.5-4.9,15.4-8.5,23.5-9.6c13.5-1.9,28.6-0.9,41.3,4.5c16.6,7.1,24.4,25.5,23.5,42.7c-0.6,10.7-1.4,20.2-6.3,30.1
		c-4.5,9.3-11.6,18-11.5,28.4c0.2,9.9,0.5,20.2-2.3,29.8c-2.6,9.1-5.9,15.9-12.7,22.6c-8.9,8.8-19.7,13.1-32.1,14.1
		c-5.5,0.4-10.9,0.4-16.3-0.2c-7.1-0.9-13.9-0.8-20.9-3C81.2,173.9,73.3,166.6,67.8,157.2z"/>
</g>
<g>
	<path class="st3" d="M174.5,137.5c-0.5,3.8-1.5,7-2.8,10.7c-1.2,3.6-2.5,7.1-4.3,10.4c-3.9,7-10.4,12.4-17.6,15.9
		s-15.2,5.2-23.2,5.9c-7.6,0.7-15.2,0.5-22.7-0.5c-3.5-0.5-8.2-0.7-11.4-2.2c-3.7-1.8,3.1-4.8,4.9-6c4.3-2.7,8.2-5.8,11.8-9.3
		c1.8-1.7,3.5-3.6,4.7-5.7c1.7-2.9,2.6-6.2,3.2-9.6c2.9-14.8,2-30.3,6.6-44.6c0.6-1.9,1.3-3.8,2.6-5.4c2.3-2.7,5.9-3.7,9.3-4.4
		c7.6-1.4,15.5-1.3,23.1,0.3c2.8,0.6,5.7,1.2,8.1,2.7c1.6,0.9,3.2,2.4,4.3,3.8c1.8,2.2,1.9,4.8,2.6,7.3c1.3,4.7,1.9,9,2,13.8
		C175.9,126.4,175.3,132,174.5,137.5z"/>
</g>
<g>
	<path class="st0" d="M167.1,158.4c-8.9,8.8-19.7,13.1-32.1,14.1c-5.5,0.4-10.9,0.4-16.3-0.2c-7.1-0.9-13.9-0.8-20.9-3
		c-10.5-3.4-18.4-10.7-23.9-20.1c-2.6-4.5-4.1-9.7-5.3-14.8c-3-12.7,1.3-26.1,3.1-38.6c0.6-4.3,0.9-8.7,1.4-13
		c0.8-6.6,2.1-13.1,4-19.4c3.2-10.6,7.7-21.8,14-31.1c-1.7,2.1-3.3,4.2-4.8,6.3c-6.9,9.6-11.7,21.6-15.1,32.8
		c-1.9,6.3-3.2,12.9-4,19.4c-0.5,4.3-0.8,8.7-1.4,13c-1.9,12.5-6.1,25.9-3.1,38.6c1.2,5.1,2.7,10.2,5.3,14.8
		c5.5,9.4,13.4,16.8,23.9,20.1c6.9,2.2,13.8,2.1,20.9,3c5.4,0.7,10.8,0.7,16.3,0.2c12.5-1,23.2-5.3,32.1-14.1c3.1-3,5.4-6.1,7.3-9.3
		C167.9,157.5,167.5,157.9,167.1,158.4z"/>
</g>
<g>
	<path class="st4" d="M167.1,158.4c-8.9,8.8-19.7,13.1-32.1,14.1c-5.5,0.4-10.9,0.4-16.3-0.2c-7.1-0.9-13.9-0.8-20.9-3
		c-1.2-0.4-2.4-0.8-3.6-1.3c0,1.1-0.3,2.3-0.9,3.6c-0.5,1.1-1.1,2.2-1.7,3.2c-0.3,0.4-0.5,0.9-0.8,1.3c-0.2,0.3-0.4,0.5-0.5,0.8
		c0.5,0.2,1,0.4,1.5,0.5c6.9,2.2,13.8,2.1,20.9,3c5.4,0.7,10.8,0.7,16.3,0.2c12.5-1,23.2-5.3,32.1-14.1c3.1-3,5.4-6.1,7.3-9.3
		C167.9,157.5,167.5,157.9,167.1,158.4z"/>
</g>
<g>
	<path class="st1" d="M121.6,181.6c-3.2,0-6.2-0.2-9.1-0.6c-2.1-0.3-4.2-0.4-6.3-0.6c-4.8-0.4-9.8-0.8-14.7-2.4
		c-9.9-3.2-18.3-10.3-24.3-20.5l0,0c-2.7-4.7-4.2-10-5.4-15c-2.3-9.8-0.4-20,1.5-29.8c0.6-3,1.2-6.1,1.6-9.1
		c0.4-2.6,0.6-5.3,0.9-7.8c0.2-1.7,0.3-3.4,0.5-5.2c0.8-7.1,2.2-13.5,4-19.6c4.2-13.6,9.3-24.7,15.2-33.1c2.5-3.5,5.6-7.3,9.2-11.3
		c3.5-3.8,6.8-6.9,10.3-9.6c6.4-4.9,15.5-8.6,23.8-9.7c15-2.1,29.8-0.5,41.7,4.6c17.7,7.6,24.8,27.3,23.9,43.5
		c-0.6,10.7-1.4,20.4-6.4,30.4c-1.2,2.4-2.5,4.8-3.8,7.1c-3.8,6.6-7.6,13.5-7.5,20.9l0,1.8c0.2,9.4,0.3,19.1-2.3,28.3
		c-2.4,8.5-5.6,15.7-12.9,22.9c-8.7,8.6-19.4,13.3-32.6,14.4C126.4,181.5,124,181.6,121.6,181.6z M68.5,156.8
		c5.8,9.9,13.9,16.7,23.5,19.8c4.8,1.5,9.4,1.9,14.4,2.3c2.1,0.2,4.2,0.3,6.4,0.6c5,0.6,10.3,0.7,16.2,0.2
		c12.9-1,23.3-5.6,31.7-13.9c7.1-7,10.1-14,12.5-22.3c2.6-9,2.4-18.6,2.3-27.8l0-1.8c-0.1-7.9,3.9-14.9,7.7-21.7
		c1.3-2.3,2.7-4.7,3.8-7c4.8-9.8,5.6-19.3,6.2-29.8c0.8-15.7-6-34.7-23-42c-11.6-4.9-26.1-6.5-40.9-4.5c-8,1.1-16.9,4.7-23.1,9.4
		c-3.4,2.6-6.7,5.6-10.1,9.4c-3.5,3.9-6.6,7.6-9,11.1C81,47.1,76,58.1,71.8,71.5c-1.8,6-3.1,12.3-4,19.3c-0.2,1.7-0.4,3.4-0.5,5.1
		c-0.3,2.6-0.5,5.3-0.9,7.9c-0.4,3-1,6.1-1.6,9.1c-1.9,9.7-3.8,19.7-1.5,29.2C64.4,147.1,65.9,152.3,68.5,156.8L68.5,156.8z"/>
</g>
<g>
	<path class="st0" d="M165.7,73.3c0-0.3-0.1-0.6-0.2-0.9c-0.1-0.3-0.2-0.5-0.4-0.8c-0.1-0.1-0.2-0.2-0.2-0.4l-0.1-0.2l-0.1-0.1
		c-0.8-0.8-1.8-1.2-2.8-1.6c-0.3-0.1-0.7-0.2-1-0.3c0,0,0-0.1,0-0.1c0-0.3-0.1-0.7-0.3-1c-0.2-0.3-0.5-0.5-0.7-0.6
		c-0.3-0.1-0.6-0.2-0.9-0.2c-0.3,0-0.5,0-0.8,0l-0.8,0.1c-0.4,0-0.7,0-1.1,0.1c-0.4,0-0.7,0-1.1-0.1l-0.8-0.1c-0.3,0-0.5-0.1-0.8,0
		c-0.3,0-0.6,0.1-0.9,0.2c-0.3,0.1-0.6,0.4-0.7,0.6c-0.2,0.3-0.2,0.6-0.3,0.9c-0.6,0.1-1.2,0.3-1.8,0.5c-0.9,0.3-2,0.7-2.8,1.6
		l-0.1,0.1l-0.1,0.2c-0.1,0.1-0.2,0.2-0.2,0.4c-0.2,0.2-0.3,0.5-0.4,0.8c-0.1,0.3-0.2,0.6-0.2,0.9c0,0.3,0,0.6,0,0.8
		c-0.1,0.5,0,1,0.1,1.6c0.1,0.3,0.2,0.6,0.3,0.8c0.1,0.1,0.2,0.3,0.2,0.4c0.1,0.1,0.1,0.1,0.2,0.2l0.1,0.1c0.1,0.1,0.2,0.2,0.3,0.3
		c0.1,0.1,0.2,0.2,0.4,0.3c0.3,0.1,0.5,0.3,0.8,0.3c0.6,0.1,1.1,0.1,1.6,0.1c0.4,0,0.7-0.1,1.1-0.1c-0.1,0.4-0.1,1-0.2,1.5
		c0,0.5,0,1,0.2,1.6c0.2,0.5,0.5,1.1,1,1.5c0.5,0.4,1.1,0.8,1.8,0.9c0.2,0,0.3,0,0.5,0l0.5,0l0.9,0l0.9,0c0.3,0,0.7,0,1-0.1
		c0.7-0.2,1.3-0.5,1.7-1c0.5-0.4,0.8-1,0.9-1.6c0.1-0.3,0.1-0.6,0.1-0.9c0-0.1,0-0.2,0-0.4c0-0.1,0-0.2,0-0.4c0-0.5-0.1-0.9-0.1-1.3
		c0.3,0.1,0.7,0.1,1.1,0.1c0.5,0,1.1,0,1.6-0.1c0.3-0.1,0.6-0.2,0.8-0.3c0.1-0.1,0.3-0.2,0.4-0.3c0.1-0.1,0.3-0.2,0.3-0.3l0.1-0.1
		c0.1-0.1,0.1-0.1,0.2-0.2c0.1-0.1,0.2-0.2,0.2-0.4c0.1-0.3,0.3-0.5,0.3-0.8c0.1-0.5,0.1-1.1,0.1-1.6
		C165.7,73.9,165.7,73.6,165.7,73.3z"/>
</g>
<g id="tith_46_">
	<path class="st5" d="M157.6,81h-1.4c-2,0-3.7-1.7-3.7-3.7v-1.4c0-2,1.7-3.7,3.7-3.7h1.4c2,0,3.7,1.7,3.7,3.7v1.4
		C161.2,79.4,159.6,81,157.6,81z"/>
</g>
<g>
	<path class="st6" d="M161.2,77.5c0-0.1,0-0.1,0-0.2v-1.4c0-2-1.7-3.7-3.7-3.7h-1.4c-2,0-3.7,1.7-3.7,3.7v1.4c0,0.1,0,0.3,0,0.4
		C154.8,76.7,158.7,76.3,161.2,77.5z"/>
</g>
<g id="tith_45_">
	<path class="st1" d="M161.1,74.5c0,0,0,0.1,0.1,0.2c0.1,0.1,0.1,0.3,0.2,0.6c0.1,0.5,0.2,1.3,0.3,2.1c0,0.1,0,0.2,0,0.4
		c0,0.1,0,0.2,0,0.4c0,0.3-0.1,0.6-0.1,0.9c-0.2,0.6-0.5,1.1-0.9,1.6c-0.5,0.5-1.1,0.8-1.7,1c-0.3,0.1-0.7,0.1-1,0.1l-0.9,0l-0.9,0
		l-0.5,0c-0.1,0-0.3,0-0.5,0c-0.7-0.1-1.3-0.4-1.8-0.9c-0.5-0.4-0.8-1-1-1.5c-0.2-0.5-0.2-1.1-0.2-1.6c0.1-0.9,0.2-1.6,0.2-2.1
		c0.1-0.3,0.1-0.5,0.2-0.6c0-0.1,0.1-0.2,0.1-0.2s0,0.3,0,0.8c0.1,0.5,0.2,1.3,0.2,2.1c0,0.4,0.1,0.8,0.3,1.2c0.2,0.4,0.5,0.7,0.9,1
		c0.4,0.3,0.8,0.4,1.3,0.5c0.1,0,0.2,0,0.4,0l0.4,0l0.9,0l0.9,0c0.3,0,0.5,0,0.7-0.1c0.5-0.1,0.9-0.3,1.2-0.6c0.3-0.3,0.6-0.7,0.8-1
		c0.1-0.2,0.1-0.4,0.2-0.6c0-0.1,0-0.2,0.1-0.3c0-0.1,0-0.2,0-0.3c0.1-0.9,0.2-1.6,0.2-2.1C161.2,74.8,161.1,74.5,161.1,74.5z"/>
</g>
<g>
	<path class="st7" d="M166,72c0.1-0.9-0.3-1.9-0.9-2.5s-1.4-1-2.1-1.3c-1-0.4-2.1-0.7-3.1-0.9c-1.1-0.2-2-0.2-3-0.1
		c-1-0.1-1.9-0.1-3,0.1c-1.1,0.2-2.1,0.5-3.1,0.9c-0.8,0.3-1.5,0.7-2.1,1.3s-1,1.6-0.9,2.5c0,0.1,0,0.1,0,0.2
		c-0.1,0.9,0,1.9,0.6,2.5c1.2,1.4,2.7,1,4.2,0.9c1.5-0.1,2.9-0.5,4.4-0.7c1.5,0.2,2.9,0.6,4.4,0.7c1.4,0.1,3,0.5,4.2-0.9
		c0.6-0.7,0.7-1.6,0.6-2.5C166,72.1,166,72,166,72z"/>
</g>
<g>
	<path class="st8" d="M153.1,74c-0.5,0-0.8-0.1-1.1-0.3c-0.4-0.2-0.7-0.4-1.1-0.8c-0.6-0.7-0.7-1.6-0.6-2.5c0-0.1,0-0.1,0-0.2
		c-0.1-0.8,0.2-1.5,0.7-2.1c-0.1,0-0.2,0.1-0.2,0.1c-0.8,0.3-1.5,0.7-2.1,1.3s-1,1.6-0.9,2.5c0,0.1,0,0.1,0,0.2
		c-0.1,0.9,0,1.9,0.6,2.5c1.2,1.4,2.7,1,4.2,0.9c1.5-0.1,2.9-0.5,4.4-0.7c1.5,0.2,2.9,0.6,4.4,0.7c1.4,0.1,2.9,0.4,4-0.7
		C161.2,73.9,157.2,73.6,153.1,74z"/>
</g>
<g>
	<path class="st1" d="M166,72c0.1-1-0.4-1.9-1-2.6c-0.7-0.7-1.6-1-2.5-1.3c-0.9-0.3-1.8-0.5-2.8-0.6c-0.9-0.1-1.9-0.1-2.8,0l0,0l0,0
		c-1,0-1.9,0-2.8,0.2c-0.9,0.2-1.8,0.5-2.7,0.9c-0.9,0.4-1.7,0.8-2.2,1.4l-0.1,0.1l-0.1,0.1c-0.1,0.1-0.1,0.2-0.2,0.2
		c-0.1,0.2-0.2,0.4-0.3,0.5c-0.1,0.2-0.1,0.4-0.1,0.6c0,0.2,0,0.4,0,0.6l0,0.1l0,0.1c-0.1,0.4,0,0.8,0,1.2c0,0.2,0.1,0.4,0.2,0.5
		c0,0.1,0.1,0.2,0.1,0.2l0.1,0.1l0.1,0.1c0.1,0.1,0.1,0.1,0.2,0.2c0.1,0.1,0.1,0.1,0.2,0.2c0.2,0.1,0.3,0.2,0.5,0.2
		c0.4,0.1,0.8,0.1,1.2,0.1l1.4-0.1c0.5,0,0.9-0.1,1.4-0.1c0.9-0.1,1.9-0.3,2.9-0.4l0.1,0l0,0c1,0.2,1.9,0.4,2.9,0.6
		c0.5,0.1,0.9,0.2,1.4,0.3c0.5,0.1,1,0.2,1.4,0.2c0.5,0,1,0,1.4-0.1c0.5-0.1,0.9-0.3,1.2-0.7c0.7-0.7,0.9-1.7,0.8-2.7l0,0L166,72z
		 M166,72l0,0.2v0c0.1,0.9,0,2-0.7,2.7c-0.3,0.4-0.8,0.6-1.2,0.8c-0.5,0.1-1,0.2-1.5,0.2c-1,0-1.9-0.1-2.9-0.2
		c-1-0.1-1.9-0.3-2.9-0.4l0.1,0c-0.9,0.2-1.9,0.4-2.8,0.6c-0.5,0.1-1,0.2-1.5,0.3c-0.5,0.1-1,0.2-1.5,0.2c-0.5,0-1.1,0-1.6-0.1
		c-0.3-0.1-0.6-0.2-0.8-0.3c-0.1-0.1-0.3-0.2-0.4-0.3c-0.1-0.1-0.3-0.2-0.3-0.3l-0.1-0.1c-0.1-0.1-0.1-0.1-0.2-0.2
		c-0.1-0.1-0.2-0.2-0.2-0.4c-0.1-0.3-0.3-0.5-0.3-0.8c-0.1-0.6-0.2-1.1-0.1-1.7l0,0.2c-0.1-0.3,0-0.6,0-0.9c0-0.3,0.1-0.6,0.2-0.9
		c0.1-0.3,0.2-0.5,0.4-0.8c0.1-0.1,0.2-0.2,0.2-0.4l0.1-0.2l0.1-0.1c0.8-0.8,1.8-1.2,2.8-1.6c1-0.3,1.9-0.5,2.9-0.7c1-0.1,2-0.1,3,0
		h0c1,0,2,0,2.9,0.2c1,0.2,1.9,0.5,2.8,0.9c0.9,0.4,1.8,0.8,2.5,1.5C165.7,70,166.1,71,166,72z"/>
</g>
<g>
	<path class="st1" d="M147.6,72c-0.1-1,0.3-1.9,1-2.6c0.7-0.7,1.6-1.1,2.5-1.5c0.9-0.4,1.8-0.7,2.8-0.9c1-0.2,2-0.3,2.9-0.2h0
		c1-0.1,2-0.1,3,0c1,0.1,2,0.4,2.9,0.7c0.9,0.3,2,0.7,2.8,1.6l0.1,0.1l0.1,0.2c0.1,0.1,0.2,0.2,0.2,0.4c0.2,0.2,0.3,0.5,0.4,0.8
		c0.1,0.3,0.2,0.6,0.2,0.9c0,0.3,0,0.6,0,0.9l0-0.2c0.1,0.5,0.1,1.1-0.1,1.7c-0.1,0.3-0.2,0.6-0.3,0.8c-0.1,0.1-0.2,0.3-0.2,0.4
		c-0.1,0.1-0.1,0.1-0.2,0.2l-0.1,0.1c-0.1,0.1-0.2,0.2-0.3,0.3c-0.1,0.1-0.2,0.2-0.4,0.3c-0.3,0.1-0.5,0.3-0.8,0.3
		c-0.6,0.1-1.1,0.1-1.6,0.1c-0.5,0-1-0.1-1.5-0.2c-0.5-0.1-1-0.2-1.5-0.3c-1-0.2-1.9-0.4-2.8-0.6l0.1,0c-0.9,0.1-1.9,0.2-2.9,0.4
		c-1,0.1-1.9,0.2-2.9,0.2c-0.5,0-1,0-1.5-0.2c-0.5-0.1-0.9-0.4-1.2-0.8c-0.7-0.7-0.9-1.8-0.7-2.7v0L147.6,72z M147.6,72l0,0.2l0,0
		c-0.1,0.9,0.1,2,0.8,2.7c0.3,0.3,0.8,0.6,1.2,0.7c0.5,0.1,0.9,0.1,1.4,0.1c0.5,0,1-0.1,1.4-0.2c0.5-0.1,0.9-0.2,1.4-0.3
		c0.9-0.2,1.9-0.4,2.9-0.6l0,0l0.1,0c1,0.1,1.9,0.2,2.9,0.4c0.5,0.1,0.9,0.1,1.4,0.1l1.4,0.1c0.4,0,0.9,0,1.2-0.1
		c0.2-0.1,0.4-0.1,0.5-0.2c0.1-0.1,0.2-0.1,0.2-0.2c0.1-0.1,0.1-0.1,0.2-0.2l0.1-0.1l0.1-0.1c0.1-0.1,0.1-0.1,0.1-0.2
		c0.1-0.2,0.1-0.3,0.2-0.5c0.1-0.4,0.1-0.8,0-1.2l0-0.1l0-0.1c0.1-0.2,0-0.4,0-0.6c0-0.2-0.1-0.4-0.1-0.6c-0.1-0.2-0.2-0.4-0.3-0.5
		c-0.1-0.1-0.1-0.2-0.2-0.2l-0.1-0.1l-0.1-0.1c-0.5-0.6-1.4-1-2.2-1.4c-0.9-0.4-1.8-0.7-2.7-0.9c-0.9-0.2-1.9-0.3-2.8-0.2l0,0l0,0
		c-0.9-0.1-1.9-0.1-2.8,0c-0.9,0.1-1.9,0.3-2.8,0.6c-0.9,0.3-1.8,0.7-2.5,1.3C148,70,147.6,71,147.6,72z"/>
</g>
<g>
	<path class="st9" d="M159.2,65.5c-0.1,0-0.1,0-0.2,0c-0.5,0-3,0-3.6,0c-0.1,0-0.2,0-0.2,0c-2.7-0.1-2.4,2.5-0.8,3.6
		c0.7,0.5,1.7,0.6,2.6,0.6c0.1,0,0.1,0,0.2,0c0.1,0,0.1,0,0.2,0c0.9,0,1.9-0.1,2.6-0.6C161.6,68,161.9,65.4,159.2,65.5z"/>
</g>
<g>
	<path class="st10" d="M160,67.4c-0.7,0.5-1.7,0.6-2.6,0.6c-0.1,0-0.1,0-0.2,0c-0.1,0-0.1,0-0.2,0c-0.9,0-1.9-0.1-2.6-0.6
		c-0.4-0.3-0.8-0.7-1-1.2c-0.6,0.8-0.1,2.2,1,2.9c0.7,0.5,1.7,0.6,2.6,0.6c0.1,0,0.1,0,0.2,0c0.1,0,0.1,0,0.2,0
		c0.9,0,1.9-0.1,2.6-0.6c1.1-0.7,1.6-2.1,1-2.9C160.8,66.6,160.5,67.1,160,67.4z"/>
</g>
<g>
	<path class="st1" d="M159.2,65.5c-1,0-2.1,0-3.1,0.1l-0.8,0.1c-0.1,0-0.2,0-0.4,0c-0.1,0-0.3,0-0.4,0.1c-0.2,0.1-0.4,0.1-0.6,0.3
		c-0.2,0.1-0.3,0.3-0.3,0.4c-0.2,0.7,0.3,1.5,0.9,2l0.1,0.1c0.1,0,0.1,0.1,0.2,0.1c0.1,0,0.2,0.1,0.3,0.1c0.2,0.1,0.4,0.1,0.6,0.2
		c0.2,0,0.5,0.1,0.7,0.1c0.2,0,0.5,0,0.7,0l0,0l0,0c0.3,0,0.7,0,1,0c0.3,0,0.6,0,0.9-0.1c0.1,0,0.3-0.1,0.4-0.1
		c0.2-0.1,0.2-0.1,0.4-0.2c0.2-0.1,0.2-0.2,0.4-0.3c0.1-0.1,0.2-0.2,0.3-0.3c0.2-0.3,0.4-0.5,0.4-0.9c0-0.2,0.1-0.3,0-0.5
		c0-0.2-0.1-0.3-0.1-0.5c-0.1-0.2-0.2-0.3-0.3-0.4c-0.1-0.1-0.3-0.2-0.4-0.2C159.9,65.5,159.6,65.5,159.2,65.5z M159.2,65.5
		c0.3,0,0.7,0,1,0.1c0.2,0,0.3,0.1,0.5,0.2c0.1,0.1,0.3,0.2,0.4,0.4c0.1,0.2,0.2,0.3,0.2,0.5c0,0.2,0,0.4,0,0.5
		c0,0.4-0.1,0.7-0.3,1.1c-0.1,0.2-0.2,0.3-0.3,0.5c-0.1,0.1-0.3,0.3-0.4,0.4c-0.1,0.1-0.3,0.3-0.5,0.4c-0.2,0.1-0.3,0.2-0.5,0.3
		c-0.4,0.1-0.7,0.2-1.1,0.3c-0.4,0.1-0.7,0.1-1.1,0.1l0,0c-0.3,0-0.5,0-0.8,0c-0.3,0-0.6,0-0.8-0.1c-0.3,0-0.6-0.1-0.9-0.2
		c-0.1-0.1-0.3-0.1-0.4-0.2l-0.2-0.1l-0.2-0.2c-0.5-0.4-0.8-0.9-1.1-1.5c-0.1-0.3-0.2-0.6-0.1-0.9c0-0.3,0.1-0.7,0.3-1
		c0.2-0.3,0.5-0.5,0.7-0.6c0.3-0.1,0.6-0.2,0.9-0.2c0.3,0,0.5,0,0.8,0l0.8,0.1C157.2,65.5,158.2,65.5,159.2,65.5z"/>
</g>
<g>
	<path class="st1" d="M155.2,65.5c1,0,2.1,0,3.1-0.1l0.8-0.1c0.3,0,0.5-0.1,0.8,0c0.3,0,0.6,0.1,0.9,0.2c0.3,0.1,0.6,0.4,0.7,0.6
		c0.2,0.3,0.3,0.6,0.3,1c0,0.3,0,0.6-0.1,0.9c-0.2,0.6-0.6,1.1-1.1,1.5l-0.2,0.2l-0.2,0.1c-0.2,0.1-0.3,0.2-0.4,0.2
		c-0.3,0.1-0.6,0.2-0.9,0.2c-0.3,0-0.6,0.1-0.8,0.1c-0.3,0-0.5,0-0.8,0l0,0c-0.4,0-0.7,0-1.1-0.1c-0.4-0.1-0.7-0.1-1.1-0.3
		c-0.2-0.1-0.4-0.2-0.5-0.3c-0.2-0.1-0.3-0.3-0.5-0.4c-0.1-0.1-0.3-0.3-0.4-0.4c-0.1-0.2-0.2-0.3-0.3-0.5c-0.2-0.3-0.3-0.7-0.3-1.1
		c0-0.2,0-0.4,0-0.5c0-0.2,0.1-0.4,0.2-0.5c0.1-0.2,0.2-0.3,0.4-0.4c0.2-0.1,0.3-0.2,0.5-0.2C154.5,65.5,154.9,65.5,155.2,65.5z
		 M155.2,65.5c-0.3,0-0.7,0-1,0.2c-0.2,0.1-0.3,0.1-0.4,0.2c-0.1,0.1-0.2,0.2-0.3,0.4c-0.1,0.1-0.1,0.3-0.1,0.5c0,0.2,0,0.3,0,0.5
		c0.1,0.3,0.2,0.6,0.4,0.9c0.1,0.1,0.2,0.2,0.3,0.3c0.1,0.1,0.2,0.2,0.4,0.3c0.2,0.1,0.2,0.1,0.4,0.2c0.1,0,0.3,0.1,0.4,0.1
		c0.3,0.1,0.6,0.1,0.9,0.1c0.3,0,0.7,0,1,0l0,0l0,0c0.2,0,0.5,0,0.7,0c0.2,0,0.5-0.1,0.7-0.1c0.2,0,0.4-0.1,0.6-0.2
		c0.1,0,0.2-0.1,0.3-0.1c0,0,0.1-0.1,0.2-0.1l0.1-0.1c0.6-0.5,1.2-1.3,0.9-2c-0.1-0.2-0.2-0.3-0.3-0.4c-0.2-0.1-0.4-0.2-0.6-0.3
		c-0.1,0-0.2,0-0.4-0.1c-0.1,0-0.2,0-0.4,0l-0.8-0.1C157.2,65.6,156.2,65.5,155.2,65.5z"/>
</g>
<g>
	<rect x="156.6" y="74.8" class="st1" width="1" height="6.5"/>
</g>
<g>
	<circle class="st5" cx="123" cy="56" r="23.3"/>
</g>
<g>
	<path class="st11" d="M104.7,56c0-12,9.1-21.9,20.8-23.1c-0.8-0.1-1.7-0.1-2.5-0.1c-12.8,0-23.3,10.4-23.3,23.3
		s10.4,23.3,23.3,23.3c0.8,0,1.7,0,2.5-0.1C113.8,77.9,104.7,68,104.7,56z"/>
</g>
<g>
	<path class="st1" d="M123,80c-13.2,0-24-10.8-24-24s10.8-24,24-24c13.2,0,24,10.8,24,24S136.2,80,123,80z M123,33.5
		c-12.4,0-22.5,10.1-22.5,22.5s10.1,22.5,22.5,22.5c12.4,0,22.5-10.1,22.5-22.5S135.4,33.5,123,33.5z"/>
</g>
<g>
	<circle class="st1" cx="116.2" cy="56.2" r="4.5"/>
</g>
<g>
	<ellipse class="st5" cx="117.4" cy="54" rx="1.3" ry="1"/>
</g>
<g>
	<circle class="st5" cx="184" cy="54.9" r="19.9"/>
</g>
<g>
	<path class="st11" d="M168.4,54.9c0-10.1,7.6-18.3,17.4-19.4c-0.7-0.1-1.4-0.1-2.1-0.1c-10.8,0-19.5,8.7-19.5,19.5
		s8.7,19.5,19.5,19.5c0.7,0,1.4,0,2.1-0.1C176,73.3,168.4,65,168.4,54.9z"/>
</g>
<g>
	<path class="st1" d="M184,75.5c-11.4,0-20.6-9.2-20.6-20.6s9.2-20.6,20.6-20.6s20.6,9.2,20.6,20.6S195.4,75.5,184,75.5z M184,35.8
		c-10.5,0-19.1,8.6-19.1,19.1S173.5,74,184,74s19.1-8.6,19.1-19.1S194.5,35.8,184,35.8z"/>
</g>
<g>
	<circle class="st1" cx="178.2" cy="55" r="3.9"/>
</g>
<g>
	<ellipse class="st5" cx="179.3" cy="53.2" rx="1.1" ry="0.8"/>
</g>
<g>
	<path class="st2" d="M99.5,108c5.8,5.9,14.1,11,22.7,11.2c2.8,0.1,5-0.5,6.7-2.8c1.3-1.9,2.1-4.5,0.5-6.5
		c-4.5-5.5-12-8.4-18.2-11.7"/>
</g>
<g>
	<path class="st0" d="M123.7,114.9c2.8,0.1,5-0.5,6.6-2.8c0.1,1.4-0.5,2.9-1.4,4.1c-1.6,2.3-3.9,2.9-6.7,2.8
		c-8.6-0.2-16.9-5.3-22.7-11.2l3.1-2.6C108.3,110.6,115.9,114.7,123.7,114.9z"/>
</g>
<g>
	<path class="st1" d="M99.5,108c0,0,0.2,0.2,0.5,0.5c0.3,0.3,0.9,0.7,1.5,1.3c0.7,0.5,1.5,1.2,2.4,1.9c1,0.7,2.1,1.4,3.3,2.2
		c1.2,0.7,2.6,1.5,4.1,2.1c1.5,0.7,3.1,1.2,4.9,1.7c1.7,0.5,3.5,0.7,5.4,0.8c1.9,0.1,3.7-0.1,5.1-1c0.7-0.5,1.3-1.1,1.8-1.9
		c0.5-0.7,0.8-1.6,0.9-2.4c0.1-0.8,0-1.6-0.3-2.3c-0.1-0.2-0.2-0.3-0.3-0.5l-0.5-0.5c-0.3-0.4-0.6-0.7-0.9-1
		c-1.2-1.3-2.6-2.4-3.9-3.3c-1.3-0.9-2.7-1.8-3.9-2.5c-2.5-1.4-4.7-2.6-6.2-3.4c-1.5-0.8-2.3-1.3-2.3-1.3s0.9,0.4,2.5,1.1
		c1.6,0.7,3.8,1.6,6.4,2.9c1.3,0.7,2.7,1.4,4.2,2.3c1.4,0.9,2.9,2,4.2,3.3c0.3,0.3,0.7,0.7,1,1l0.5,0.5c0.2,0.3,0.3,0.4,0.5,0.7
		c0.6,1,0.7,2.1,0.6,3.2c-0.2,1.1-0.6,2.1-1.1,3c-0.5,0.9-1.3,1.7-2.2,2.4c-1.9,1.3-4.1,1.4-6,1.2c-2-0.1-3.9-0.5-5.7-1
		c-3.6-1.1-6.7-2.7-9.1-4.4c-1.2-0.8-2.3-1.7-3.2-2.4c-0.9-0.8-1.7-1.5-2.3-2.1c-0.6-0.6-1.1-1.1-1.4-1.4
		C99.7,108.1,99.5,108,99.5,108z"/>
</g>
<g>
	<path class="st1" d="M129.2,123c0,0,0.6,0,1.7,0.2c1.1,0.1,2.6,0.3,4.4,0.4c0.9,0.1,1.9,0.2,2.9,0.3c1,0.1,2.1,0.2,3.3,0.2
		c1.1,0.1,2.3,0.1,3.5,0.2c1.2,0.1,2.4,0.1,3.6,0.1c1.2,0.1,2.4,0.1,3.6,0.1c1.2,0,2.4,0,3.5,0c2.3,0,4.4-0.1,6.2-0.1
		c1.8-0.1,3.3-0.1,4.4-0.2c1-0.1,1.6-0.3,1.6-0.3s-0.1,0.1-0.4,0.2c-0.3,0.1-0.6,0.3-1.2,0.5c-0.5,0.2-1.2,0.3-1.9,0.5
		c-0.7,0.2-1.6,0.3-2.5,0.5c-0.9,0.2-1.9,0.3-2.9,0.4c-1,0.1-2.2,0.2-3.3,0.3c-1.1,0.1-2.3,0.2-3.5,0.2c-1.2,0-2.4,0-3.7,0
		c-2.5-0.1-4.9-0.3-7.2-0.6c-1.1-0.1-2.2-0.3-3.3-0.5c-1-0.2-2-0.4-2.9-0.6c-1.8-0.4-3.3-0.8-4.3-1.2
		C129.8,123.2,129.2,123,129.2,123z"/>
</g>
<g>
	<path class="st1" d="M131.3,140.7c0,0,0.5,0,1.4-0.1c0.9,0,2.1,0,3.6-0.1c1.5,0,3.2,0,5,0c1.8,0,3.8,0,5.7,0c2,0,3.9,0,5.7,0
		c1.8,0,3.5,0,5-0.1c1.4-0.1,2.6-0.4,3.4-0.7c0.8-0.3,1.2-0.6,1.2-0.6s-0.1,0.1-0.2,0.3c-0.2,0.2-0.4,0.4-0.8,0.7
		c-0.7,0.5-1.9,1.1-3.4,1.5c-0.7,0.2-1.6,0.3-2.4,0.4c-0.8,0.1-1.7,0.2-2.7,0.3c-0.9,0.1-1.9,0.1-2.9,0.2c-1,0-2,0.1-2.9,0.1
		c-1,0-2,0-2.9-0.1c-1,0-1.9-0.1-2.9-0.2c-1.8-0.1-3.6-0.4-5-0.6C133.2,141.3,131.3,140.7,131.3,140.7z"/>
</g>
<g>
	<path class="st1" d="M136.9,153.4c0,0,0.3-0.1,1-0.1c0.6-0.1,1.5-0.2,2.5-0.2c1-0.1,2.2-0.2,3.5-0.3c1.3-0.1,2.6-0.2,4-0.3
		c1.4-0.1,2.7-0.2,4-0.3c1.3-0.1,2.5-0.2,3.5-0.2c1-0.1,1.9-0.1,2.5-0.1c0.6,0,1,0,1,0s-1.3,0.6-3.3,1.2c-1,0.3-2.2,0.6-3.5,0.8
		c-0.6,0.1-1.3,0.2-2,0.3c-0.7,0.1-1.4,0.1-2.1,0.2c-0.7,0-1.4,0.1-2.1,0.1c-0.7,0-1.4,0-2,0c-1.3-0.1-2.5-0.2-3.6-0.4
		C138.2,153.9,136.9,153.4,136.9,153.4z"/>
</g>
<g>
	<path class="st1" d="M140.5,159.3c0,0,0.8-0.3,1.9-0.5c1.2-0.3,2.7-0.5,4.2-0.6c1.5-0.2,3-0.2,4.2-0.2c1.2,0,2,0.1,2,0.1
		s-0.7,0.5-1.8,1c-1.1,0.5-2.7,0.9-4.2,1.1c-1.6,0.2-3.2,0.1-4.4-0.2C141.3,159.6,140.5,159.3,140.5,159.3z"/>
</g>
<g>
	<path class="st1" d="M130.2,101.3c0,0,0.6,0,1.6,0.1c1,0.1,2.5,0.2,4.3,0.3c0.9,0.1,1.8,0.1,2.9,0.2c1,0.1,2.1,0.1,3.2,0.2
		c2.2,0.1,4.6,0.2,6.9,0.2c2.4,0.1,4.7,0,6.9,0c1.1,0,2.2,0,3.2-0.1c1,0,2-0.1,2.9-0.1c1.8-0.1,3.3-0.1,4.3-0.2c1,0,1.6,0,1.6,0
		s-0.6,0.2-1.6,0.4c-0.5,0.1-1.1,0.3-1.8,0.4c-0.7,0.2-1.5,0.3-2.4,0.5c-1.8,0.3-3.9,0.6-6.1,0.8c-1.1,0.1-2.3,0.2-3.5,0.2
		c-1.2,0-2.4,0-3.6,0c-1.2,0-2.4-0.1-3.6-0.2c-1.2-0.1-2.3-0.2-3.5-0.3c-2.2-0.3-4.3-0.6-6.1-1c-0.9-0.2-1.7-0.4-2.4-0.6
		c-0.7-0.2-1.3-0.3-1.8-0.5C130.8,101.5,130.2,101.3,130.2,101.3z"/>
</g>
<g>
	<path class="st2" d="M99.1,185.4c-1.9,2-3.9,3.2-6.7,2.7c-2.3-0.4-4.7-1.7-4.9-4.2c-0.8-7.1,2.5-14.5,4.5-21.1
		c0.5-1.5,1.1-2.9,2.4-3.7c0.8-0.5,1.8-0.7,2.7-0.8c1.7-0.2,3.5-0.3,5.3-0.3c6.4,0.1,4.8,7.8,4,12
		C105.3,175.7,103.1,181.2,99.1,185.4z"/>
</g>
<g>
	<path class="st0" d="M95.1,183.5c-1.9,2-3.9,3.2-6.6,2.7c1,1.1,2.5,1.7,3.9,1.9c2.8,0.5,4.8-0.7,6.7-2.7c3.1-3.3,5.1-7.4,6.4-11.7
		c0.5-1.7,3.4-11.3-0.4-11c-2.1,0.1-2.3,2.6-2.6,4.1c-0.3,2-0.8,4-1.4,6C99.9,176.7,97.9,180.5,95.1,183.5z"/>
</g>
<g>
	<path class="st1" d="M107.1,161.4c0,0,0,0.2,0,0.7c0,0.5,0.1,1.1,0.1,2c0,0.9,0,1.9-0.1,3.1c-0.1,1.2-0.2,2.5-0.5,4
		c-0.5,2.9-1.5,6.3-3.3,9.6c-0.9,1.6-2,3.3-3.3,4.7c-1.3,1.5-2.9,3-5.1,3.4c-1.1,0.2-2.2,0.1-3.2-0.1c-1-0.2-2-0.6-2.9-1.3
		c-0.9-0.6-1.6-1.6-1.9-2.7c-0.1-0.3-0.1-0.5-0.2-0.8l0-0.7c0-0.5,0-0.9,0-1.4c0-1.9,0.3-3.7,0.6-5.3c0.3-1.7,0.8-3.2,1.3-4.6
		c0.9-2.8,1.9-5,2.5-6.6c0.6-1.6,1-2.5,1-2.5s-0.2,1-0.7,2.6c-0.5,1.6-1.2,4-1.9,6.8c-0.4,1.4-0.7,2.9-1,4.6
		c-0.3,1.6-0.4,3.4-0.4,5.1c0,0.4,0,0.9,0.1,1.3l0.1,0.7c0,0.1,0.1,0.4,0.1,0.5c0.2,0.7,0.7,1.4,1.4,1.9c0.7,0.5,1.5,0.8,2.4,1
		c0.9,0.2,1.8,0.3,2.6,0.1c1.7-0.3,3.1-1.5,4.3-2.9c1.2-1.4,2.3-2.9,3.2-4.4c0.9-1.6,1.6-3.1,2.2-4.7c0.6-1.5,1-3,1.4-4.4
		c0.3-1.4,0.6-2.7,0.8-3.9c0.2-1.2,0.3-2.2,0.4-3c0.1-0.8,0.1-1.5,0.1-2C107.1,161.7,107.1,161.4,107.1,161.4z"/>
</g>
</svg>
